<svg width="361" height="588" viewBox="0 0 361 588" fill="none" xmlns="http://www.w3.org/2000/svg">
<path d="M0 15C0 6.71572 6.71573 0 15 0H346C354.284 0 361 6.71573 361 15V573C361 581.284 354.284 588 346 588H320.443C316.378 588 313.895 583.304 315.572 579.601C318.416 573.319 320 566.344 320 559C320 531.386 297.614 509 270 509C242.386 509 220 531.386 220 559C220 566.344 221.584 573.319 224.428 579.601C226.105 583.304 223.622 588 219.557 588H140.443C136.378 588 133.895 583.304 135.572 579.601C138.416 573.319 140 566.344 140 559C140 531.386 117.614 509 90 509C62.3858 509 40 531.386 40 559C40 566.344 41.5835 573.319 44.4278 579.601C46.1045 583.304 43.6223 588 39.5571 588H15C6.71572 588 0 581.284 0 573V15Z" fill="#ffffff"/>
</svg>
